<?xml version="1.0" standalone="no"?>
<!DOCTYPE svg PUBLIC "-//W3C//DTD SVG 20010904//EN"
 "http://www.w3.org/TR/2001/REC-SVG-20010904/DTD/svg10.dtd">
<svg version="1.0" xmlns="http://www.w3.org/2000/svg"
 width="64.000000pt" height="64.000000pt" viewBox="0 0 64.000000 64.000000"
 preserveAspectRatio="xMidYMid meet">
<metadata>
Created by potrace 1.10, written by Peter Selinger 2001-2011
</metadata>
<g transform="translate(0.000000,64.000000) scale(0.100000,-0.100000)"
fill="#000000" stroke="none">
<path d="M166 595 c-110 -39 -166 -174 -117 -280 51 -110 179 -156 282 -102
l43 23 74 -93 c40 -51 79 -93 85 -93 22 0 57 31 57 50 0 12 -35 46 -92 92
l-93 73 23 45 c84 166 -83 349 -262 285z m137 -39 c44 -18 95 -78 103 -121 11
-60 -4 -106 -50 -151 -72 -73 -171 -70 -240 6 -59 66 -60 152 -3 217 53 60
122 78 190 49z"/>
</g>
</svg>
